<svg xmlns="http://www.w3.org/2000/svg" viewBox="0 0 24 24" id="nvidia">
  <path fill="#77B900" d="m8.948 14.408.001.001zM8.948 18.121v-1.247c-4.84-.605-6.492-5.983-6.492-5.983s2.164-3.222 6.5-3.561V6.155C4.153 6.547 0 10.642 0 10.642s2.35 6.856 8.948 7.479z"></path>
  <path fill="#77B900" d="M4.275 11.053s1.016 3.836 4.673 4.495v-1.14c-2.058-.704-2.738-3.134-2.738-3.134s1.202-1.442 2.73-1.255h.008V8.773a6.035 6.035 0 0 1 .796-.036c2.508 0 4 1.968 4 1.968l-2.04 1.728c-.91-1.54-1.219-2.217-2.747-2.404v4.38c.371.124.76.187 1.158.187 2.976 0 5.75-3.882 5.75-3.882s-2.571-3.526-6.493-3.401h-.004a6.489 6.489 0 0 0-.42.018v1.441l-.027.003.023-.001c-2.913.321-4.669 2.279-4.669 2.279z"></path>
  <path fill="#77B900" d="M24 4H8.948v2.155l.424-.027c5.45-.186 9.01 4.506 9.01 4.506s-4.08 5.003-8.33 5.003a6.36 6.36 0 0 1-1.095-.098v1.335c.3.035.61.063.91.063 3.957 0 6.82-2.039 9.593-4.443.459.374 2.34 1.273 2.73 1.665-2.633 2.226-8.772 4.016-12.253 4.016-.335 0-.653-.018-.971-.053V20H24V4z"></path>
</svg>
