<svg xmlns="http://www.w3.org/2000/svg" width="256" height="256" fill="none" viewBox="0 0 256 256" id="openai">
  <path fill="url(#paint0_linear_533_5492)" fill-rule="evenodd" d="M58.7042 58.7042C48.8797 68.5258 45.3321 82.2477 48.0614 94.8868C37.1932 101.897 30 114.109 30 128C30 141.892 37.1942 154.103 48.0614 161.112C45.3331 173.751 48.8807 187.473 58.7042 197.297C68.5267 207.119 82.2487 210.667 94.8878 207.94C101.897 218.806 114.109 226 128 226C141.892 226 154.103 218.806 161.112 207.94C173.751 210.667 187.473 207.119 197.297 197.297C207.119 187.473 210.667 173.751 207.94 161.112C218.806 154.103 226 141.892 226 128C226 114.109 218.806 101.897 207.94 94.8878C210.667 82.2487 207.119 68.5258 197.297 58.7032C187.473 48.8807 173.751 45.3331 161.112 48.0604C154.103 37.1942 141.892 30 128 30C114.109 30 101.897 37.1942 94.8878 48.0614C82.2487 45.3331 68.5267 48.8807 58.7042 58.7042Z" clip-rule="evenodd"></path>
  <path fill="url(#paint1_linear_533_5492)" fill-rule="evenodd" d="M48.0614 161.112C37.1942 154.103 30 141.892 30 128C30 114.109 37.1932 101.897 48.0614 94.8868C45.3321 82.2477 48.8797 68.5258 58.7042 58.7042C68.5267 48.8807 82.2487 45.3331 94.8878 48.0614C101.897 37.1942 114.109 30 128 30C141.892 30 154.103 37.1942 161.112 48.0604C173.751 45.3331 187.473 48.8807 197.297 58.7032C207.119 68.5258 210.667 82.2487 207.94 94.8878C218.806 101.897 226 114.109 226 128C226 141.892 218.806 154.103 207.94 161.112C210.667 173.751 207.119 187.473 197.297 197.297C187.473 207.119 173.751 210.667 161.112 207.94C154.103 218.806 141.892 226 128 226C114.109 226 101.897 218.806 94.8878 207.94C82.2487 210.667 68.5267 207.119 58.7042 197.297C48.8807 187.473 45.3331 173.751 48.0614 161.112Z" clip-rule="evenodd"></path>
  <path fill="#000" d="M185.149 115.895C186.639 111.405 187.155 106.649 186.661 101.944C186.167 97.2397 184.675 92.6946 182.284 88.6126C175.011 75.9531 160.394 69.4412 146.118 72.5012C142.165 68.1043 137.125 64.825 131.504 62.9924C125.883 61.1599 119.878 60.8386 114.094 62.061C108.309 63.2833 102.948 66.0062 98.5485 69.9562C94.1492 73.9062 90.8666 78.9442 89.0305 84.5642C84.3952 85.5147 80.0162 87.4436 76.1861 90.2221C72.356 93.0005 69.1631 96.5644 66.8207 100.676C59.4688 113.315 61.138 129.258 70.9477 140.102C69.4514 144.589 68.9305 149.344 69.4201 154.049C69.9096 158.754 71.3982 163.3 73.7863 167.383C81.0683 180.047 95.695 186.559 109.979 183.495C113.119 187.031 116.978 189.857 121.297 191.783C125.616 193.709 130.297 194.692 135.026 194.666C149.659 194.679 162.622 185.233 167.092 171.3C171.727 170.347 176.105 168.418 179.935 165.64C183.764 162.861 186.958 159.298 189.301 155.188C196.564 142.571 194.888 126.715 185.149 115.895ZM135.026 185.94C129.186 185.949 123.528 183.902 119.046 180.157L119.834 179.71L146.38 164.387C147.041 164 147.59 163.447 147.972 162.784C148.355 162.12 148.558 161.369 148.562 160.603V123.175L159.785 129.667C159.897 129.724 159.975 129.831 159.996 129.956V160.97C159.967 174.748 148.804 185.911 135.026 185.94ZM81.356 163.021C78.4269 157.963 77.3752 152.035 78.3859 146.278L79.174 146.751L105.747 162.074C106.404 162.46 107.153 162.664 107.915 162.664C108.677 162.664 109.426 162.46 110.083 162.074L142.543 143.361V156.318C142.54 156.385 142.522 156.451 142.49 156.51C142.458 156.569 142.414 156.621 142.359 156.66L115.472 172.167C103.523 179.051 88.2578 174.958 81.356 163.021ZM74.3642 105.197C77.3137 100.107 81.969 96.2241 87.5062 94.2367V125.776C87.4962 126.538 87.6909 127.289 88.07 127.95C88.4491 128.611 88.9987 129.159 89.6614 129.535L121.963 148.17L110.74 154.662C110.68 154.694 110.612 154.711 110.543 154.711C110.475 154.711 110.407 154.694 110.346 154.662L83.5112 139.182C71.5863 132.27 67.4968 117.016 74.3642 105.066V105.197ZM166.566 126.618L134.159 107.799L145.356 101.333C145.417 101.301 145.484 101.284 145.553 101.284C145.622 101.284 145.69 101.301 145.751 101.333L172.586 116.841C176.689 119.208 180.034 122.694 182.23 126.891C184.426 131.088 185.383 135.824 184.989 140.545C184.595 145.265 182.866 149.776 180.004 153.551C177.143 157.326 173.266 160.209 168.827 161.864V130.324C168.804 129.563 168.583 128.821 168.187 128.172C167.791 127.522 167.232 126.987 166.566 126.618ZM177.737 109.823L176.948 109.349L150.428 93.8951C149.767 93.507 149.014 93.3024 148.247 93.3024C147.48 93.3024 146.727 93.507 146.065 93.8951L113.631 112.609V99.6518C113.624 99.5859 113.635 99.5194 113.663 99.4592C113.691 99.3991 113.734 99.3476 113.789 99.3101L140.624 83.829C144.737 81.4597 149.439 80.3104 154.182 80.5155C158.924 80.7207 163.509 82.2717 167.402 84.9873C171.295 87.703 174.334 91.4709 176.164 95.8503C177.994 100.23 178.539 105.04 177.736 109.718V109.823H177.737ZM107.508 132.794L96.2848 126.329C96.2287 126.295 96.1807 126.249 96.1443 126.194C96.1079 126.14 96.084 126.078 96.0742 126.013V95.0783C96.0804 90.3326 97.4375 85.6868 99.9867 81.684C102.536 77.6812 106.172 74.4868 110.47 72.4744C114.768 70.4619 119.55 69.7146 124.257 70.3197C128.964 70.9248 133.401 72.8574 137.05 75.8914L136.261 76.3384L109.715 91.6613C109.055 92.0488 108.506 92.6015 108.124 93.2651C107.741 93.9286 107.538 94.6803 107.534 95.4461L107.508 132.795V132.794ZM113.605 119.652L128.061 111.321L142.543 119.653V136.316L128.114 144.648L113.632 136.316L113.605 119.652Z"></path>
  <defs>
    <linearGradient id="paint0_linear_533_5492" x1="226" x2="30" y1="226" y2="30" gradientUnits="userSpaceOnUse">
      <stop stop-color="#ACCCFF" stop-opacity="0"></stop>
      <stop offset="1" stop-color="#fff"></stop>
    </linearGradient>
    <linearGradient id="paint1_linear_533_5492" x1="226" x2="30" y1="226" y2="30" gradientUnits="userSpaceOnUse">
      <stop stop-color="#ACCCFF" stop-opacity="0"></stop>
      <stop offset="1" stop-color="#fff"></stop>
    </linearGradient>
  </defs>
</svg>
