<svg xmlns="http://www.w3.org/2000/svg" viewBox="0 0 24 24" id="tcs">
  <path fill="#EC1C24" d="M3.914.002h8.977s.701-.123 1.669 1.789l4.596 8.334s.59 1.082 1.425 1.167H23l-2.884 3.934-1.578.001s-1.281.014-2.268-1.995l-4.644-8.563s-.323-.732-1.31-.687H1L3.914.002z"></path>
  <path fill="#EC1C24" d="M6.183 4.715h4.603l5.437 9.85s.469 1.131 1.753 1.389l1.606.001-2.612 3.569h-1.682s-1.095.049-1.82-1.398L6.183 4.715z"></path>
  <path fill="#EC1C24" d="M1 4.692h4.438l7.942 14.579s.358.835 1.241.921h1.86L13.695 24h-1.579s-.744.001-1.398-1.308L1 4.692z"></path>
</svg>
